<svg width="871.3" height="173.8" viewBox="0 0 871.3 173.8" fill="none" xmlns="http://www.w3.org/2000/svg">
<g transform="translate(-0.244, 7.900)">
  <path d="M34.7501 6.09157C38.5179 2.19817 43.7041 0 49.1221 0H179.844C185.142 0 187.84 6.36528 184.156 10.1725L159.25 35.9084C155.482 39.8018 150.296 42 144.878 42H68.6774H14.156C8.85786 42 6.15994 35.6347 9.84438 31.8275L34.7501 6.09157Z" fill="url(#paint0_linear_1_18)"></path>
  <path d="M50.7501 64.0916C54.5179 60.1982 59.7041 58 65.1221 58H195.844C201.142 58 203.84 64.3653 200.156 68.1725L175.25 93.9084C171.482 97.8018 166.296 100 160.878 100H84.6774H30.156C24.8579 100 22.1599 93.6347 25.8444 89.8275L50.7501 64.0916Z" fill="url(#paint1_linear_1_18)"></path>
  <path d="M66.7501 122.092C70.5179 118.198 75.7041 116 81.1221 116H211.844C217.142 116 219.84 122.365 216.156 126.173L191.25 151.908C187.482 155.802 182.296 158 176.878 158H116.677H46.156C40.8579 158 38.1599 151.635 41.8444 147.827L66.7501 122.092Z" fill="url(#paint2_linear_1_18)"></path>
</g>
<path transform="translate(244.472, 15.800) scale(2.18152) translate(-8.156, -176.908)" d="M67.2085 226.552C67.6565 226.832 67.8805 227.168 67.8805 227.56C67.8805 227.728 67.7965 227.98 67.6285 228.316L60.9085 241.42C60.6285 241.868 60.2925 242.092 59.9005 242.092C59.5645 242.092 59.3125 242.008 59.1445 241.84L58.7245 241.42C58.5005 241.196 58.2485 241.056 57.9685 241C57.6885 241 57.4085 241 57.1285 241H9.41648C8.57648 241 8.15648 240.58 8.15648 239.74V235.12C8.15648 234.56 8.35248 234 8.74448 233.44L46.5445 184.804H32.2645C29.7445 184.804 27.5885 185.196 25.7965 185.98C24.0605 186.708 22.5205 187.744 21.1765 189.088C19.8885 190.376 18.5725 191.832 17.2285 193.456L16.8925 193.876C16.5005 194.38 16.1645 194.632 15.8845 194.632C15.6605 194.632 15.4085 194.548 15.1285 194.38L11.6005 192.448C11.1525 192.168 10.9285 191.832 10.9285 191.44C10.9285 191.272 11.0125 191.02 11.1805 190.684L17.8165 177.58C18.0405 177.132 18.4045 176.908 18.9085 176.908C19.0765 176.908 19.2165 176.936 19.3285 176.992C19.4965 177.048 19.7485 177.244 20.0845 177.58C20.3085 177.804 20.5605 177.944 20.8405 178C21.1205 178 21.4005 178 21.6805 178H66.6205C66.9565 178 67.1245 178.14 67.1245 178.42V178.84C67.1245 179.008 67.0685 179.176 66.9565 179.344C66.8445 179.512 66.7325 179.68 66.6205 179.848L25.3765 233.356H36.7165C41.9245 233.356 46.1245 233.076 49.3165 232.516C52.5645 231.956 55.1405 231.116 57.0445 229.996C58.9485 228.82 60.4605 227.364 61.5805 225.628L61.9165 225.124C62.1965 224.62 62.5325 224.368 62.9245 224.368C63.2045 224.368 63.4565 224.452 63.6805 224.62L67.2085 226.552ZM113.848 225.46C113.848 227.476 114.156 229.296 114.772 230.92C115.388 232.488 116.732 233.412 118.804 233.692C119.476 233.748 119.812 234.112 119.812 234.784V237.556C119.812 238.34 119.392 238.732 118.552 238.732C115.808 238.732 113.512 238.9 111.664 239.236C109.872 239.516 108.304 239.908 106.96 240.412C105.672 240.86 104.384 241.364 103.096 241.924C102.872 242.036 102.676 242.092 102.508 242.092H102.256C102.144 242.092 102.088 241.98 102.088 241.756C102.088 241.532 102.144 241 102.256 240.16C102.368 239.264 102.48 238.284 102.592 237.22C102.76 236.1 102.9 235.148 103.012 234.364C102.732 235.092 102.116 236.072 101.164 237.304C100.268 238.536 98.9242 239.656 97.1322 240.664C95.3962 241.616 93.1002 242.092 90.2442 242.092C88.3402 242.092 86.2962 241.7 84.1122 240.916C81.9842 240.132 79.9682 238.872 78.0642 237.136C76.1602 235.4 74.5922 233.132 73.3602 230.332C72.1842 227.476 71.5962 224.004 71.5962 219.916C71.5962 214.708 72.5202 210.508 74.3682 207.316C76.2722 204.068 78.7082 201.688 81.6762 200.176C84.7002 198.664 87.8922 197.908 91.2522 197.908C93.9962 197.908 96.5162 198.328 98.8122 199.168C101.108 200.008 103.124 201.212 104.86 202.78C106.316 202.164 107.548 201.604 108.556 201.1C109.62 200.54 110.516 199.98 111.244 199.42C111.524 199.196 111.804 198.972 112.084 198.748C112.42 198.524 112.784 198.3 113.176 198.076C113.344 197.964 113.484 197.908 113.596 197.908H113.68C113.792 197.908 113.848 197.964 113.848 198.076V225.46ZM102.088 212.272C101.92 211.152 101.5 209.92 100.828 208.576C100.212 207.176 99.2602 206 97.9722 205.048C96.6842 204.04 94.9482 203.536 92.7642 203.536C90.0762 203.536 87.9762 204.208 86.4642 205.552C84.9522 206.84 83.8882 208.52 83.2722 210.592C82.7122 212.664 82.4322 214.876 82.4322 217.228C82.4322 222.604 83.4962 226.86 85.6242 229.996C87.8082 233.132 90.6082 234.7 94.0242 234.7C96.0402 234.7 97.6082 234.28 98.7282 233.44C99.9042 232.544 100.744 231.648 101.248 230.752C101.752 229.856 102.032 229.324 102.088 229.156V212.272ZM167.177 199C168.017 199 168.437 199.42 168.437 200.26V202.78C168.437 203.62 168.017 204.04 167.177 204.04H165.917C165.021 204.04 164.209 204.376 163.481 205.048C162.809 205.72 161.997 207.12 161.045 209.248L146.849 240.076C146.569 240.692 146.149 241 145.589 241H140.801C140.185 241 139.737 240.692 139.457 240.076L125.345 209.332C124.393 207.204 123.609 205.804 122.993 205.132C122.433 204.404 121.593 204.04 120.473 204.04H120.305C119.465 204.04 119.045 203.62 119.045 202.78V200.26C119.045 199.42 119.465 199 120.305 199H139.709C140.549 199 140.969 199.42 140.969 200.26V202.78C140.969 203.62 140.549 204.04 139.709 204.04H139.541C138.477 204.04 137.721 204.264 137.273 204.712C136.881 205.104 136.685 205.692 136.685 206.476C136.685 207.204 136.825 208.016 137.105 208.912C137.441 209.808 137.889 210.844 138.449 212.02L146.177 228.4L153.233 212.02C153.793 210.732 154.269 209.556 154.661 208.492C155.053 207.428 155.249 206.532 155.249 205.804C155.249 204.628 154.633 204.04 153.401 204.04H151.721C150.881 204.04 150.461 203.62 150.461 202.78V200.26C150.461 199.42 150.881 199 151.721 199H167.177ZM211.219 225.46C211.219 227.476 211.527 229.296 212.143 230.92C212.759 232.488 214.103 233.412 216.175 233.692C216.847 233.748 217.183 234.112 217.183 234.784V237.556C217.183 238.34 216.763 238.732 215.923 238.732C213.179 238.732 210.883 238.9 209.035 239.236C207.243 239.516 205.675 239.908 204.331 240.412C203.043 240.86 201.755 241.364 200.467 241.924C200.243 242.036 200.047 242.092 199.879 242.092H199.627C199.515 242.092 199.459 241.98 199.459 241.756C199.459 241.532 199.515 241 199.627 240.16C199.739 239.264 199.851 238.284 199.963 237.22C200.131 236.1 200.271 235.148 200.383 234.364C200.103 235.092 199.487 236.072 198.535 237.304C197.639 238.536 196.295 239.656 194.503 240.664C192.767 241.616 190.471 242.092 187.615 242.092C185.711 242.092 183.667 241.7 181.483 240.916C179.355 240.132 177.339 238.872 175.435 237.136C173.531 235.4 171.963 233.132 170.731 230.332C169.555 227.476 168.967 224.004 168.967 219.916C168.967 214.708 169.891 210.508 171.739 207.316C173.643 204.068 176.079 201.688 179.047 200.176C182.071 198.664 185.263 197.908 188.623 197.908C191.367 197.908 193.887 198.328 196.183 199.168C198.479 200.008 200.495 201.212 202.231 202.78C203.687 202.164 204.919 201.604 205.927 201.1C206.991 200.54 207.887 199.98 208.615 199.42C208.895 199.196 209.175 198.972 209.455 198.748C209.791 198.524 210.155 198.3 210.547 198.076C210.715 197.964 210.855 197.908 210.967 197.908H211.051C211.163 197.908 211.219 197.964 211.219 198.076V225.46ZM199.459 212.272C199.291 211.152 198.871 209.92 198.199 208.576C197.583 207.176 196.631 206 195.343 205.048C194.055 204.04 192.319 203.536 190.135 203.536C187.447 203.536 185.347 204.208 183.835 205.552C182.323 206.84 181.259 208.52 180.643 210.592C180.083 212.664 179.803 214.876 179.803 217.228C179.803 222.604 180.867 226.86 182.995 229.996C185.179 233.132 187.979 234.7 191.395 234.7C193.411 234.7 194.979 234.28 196.099 233.44C197.275 232.544 198.115 231.648 198.619 230.752C199.123 229.856 199.403 229.324 199.459 229.156V212.272ZM238.843 207.82C240.355 204.572 242.455 202.108 245.143 200.428C247.831 198.748 250.659 197.908 253.627 197.908C256.259 197.908 258.499 198.636 260.347 200.092C262.195 201.548 263.119 203.704 263.119 206.56C263.119 207.792 263.007 208.884 262.783 209.836C262.559 210.788 261.943 211.488 260.935 211.936L253.039 215.128C252.703 215.24 252.451 215.296 252.283 215.296C251.779 215.296 251.527 215.044 251.527 214.54C251.527 214.372 251.583 214.12 251.695 213.784C252.031 213 252.227 212.244 252.283 211.516C252.395 210.788 252.451 210.144 252.451 209.584C252.451 208.072 252.059 206.98 251.275 206.308C250.547 205.58 249.623 205.216 248.503 205.216C247.215 205.216 246.011 205.608 244.891 206.392C243.771 207.176 242.791 208.128 241.951 209.248C241.111 210.368 240.495 211.46 240.103 212.524V227.98C240.103 230.22 240.607 232.124 241.615 233.692C242.623 235.204 244.163 235.96 246.235 235.96H246.403C247.243 235.96 247.663 236.38 247.663 237.22V239.74C247.663 240.58 247.243 241 246.403 241H221.959C221.119 241 220.699 240.58 220.699 239.74V237.22C220.699 236.38 221.119 235.96 221.959 235.96H222.127C224.199 235.96 225.739 235.204 226.747 233.692C227.755 232.124 228.259 230.22 228.259 227.98V217.396C228.259 215.884 228.147 214.428 227.923 213.028C227.755 211.628 227.335 210.452 226.663 209.5C225.991 208.492 224.871 207.904 223.303 207.736C222.631 207.68 222.295 207.316 222.295 206.644V203.788C222.295 203.228 222.715 202.864 223.555 202.696C227.531 202.08 231.003 201.1 233.971 199.756C236.995 198.412 239.039 197.348 240.103 196.564C240.271 196.452 240.411 196.396 240.523 196.396H240.691C240.803 196.396 240.859 196.452 240.859 196.564C240.859 196.62 240.775 197.04 240.607 197.824C240.495 198.608 240.327 199.616 240.103 200.848C239.935 202.024 239.711 203.256 239.431 204.544C239.207 205.776 239.011 206.868 238.843 207.82ZM290.61 235.96C291.45 235.96 291.87 236.38 291.87 237.22V239.74C291.87 240.58 291.394 241 290.442 241H266.67C265.718 241 265.242 240.58 265.242 239.74V237.22C265.242 236.38 265.662 235.96 266.502 235.96H266.67C268.742 235.96 270.254 235.204 271.206 233.692C272.214 232.124 272.718 230.22 272.718 227.98V219.076C272.718 217.788 272.606 216.5 272.382 215.212C272.214 213.924 271.794 212.804 271.122 211.852C270.45 210.9 269.33 210.34 267.762 210.172C267.09 210.116 266.754 209.752 266.754 209.08V206.224C266.754 205.888 266.866 205.664 267.09 205.552C267.314 205.384 267.622 205.244 268.014 205.132C272.438 203.676 275.826 202.192 278.178 200.68C280.586 199.112 282.35 197.74 283.47 196.564C283.582 196.452 283.694 196.396 283.806 196.396H284.058C284.17 196.396 284.226 196.452 284.226 196.564V227.896C284.226 230.136 284.73 232.04 285.738 233.608C286.746 235.176 288.286 235.96 290.358 235.96H290.61ZM278.598 178.84C280.054 178.84 281.482 179.54 282.882 180.94C284.282 182.34 284.982 183.74 284.982 185.14C284.982 186.54 284.282 187.94 282.882 189.34C281.482 190.74 280.054 191.44 278.598 191.44C277.254 191.44 275.854 190.74 274.398 189.34C272.998 187.996 272.298 186.596 272.298 185.14C272.298 183.74 272.998 182.34 274.398 180.94C275.798 179.54 277.198 178.84 278.598 178.84Z" fill="#0A1F44"></path>
<defs>
<linearGradient id="paint0_linear_1_18" x1="-16" y1="21" x2="194" y2="21" gradientUnits="userSpaceOnUse">
<stop stop-color="#1B4987"></stop>
<stop offset="1" stop-color="#2F80ED"></stop>
</linearGradient>
<linearGradient id="paint1_linear_1_18" x1="0" y1="79" x2="210" y2="79" gradientUnits="userSpaceOnUse">
<stop stop-color="#1B4987"></stop>
<stop offset="1" stop-color="#2F80ED"></stop>
</linearGradient>
<linearGradient id="paint2_linear_1_18" x1="32" y1="137" x2="242" y2="137" gradientUnits="userSpaceOnUse">
<stop stop-color="#32768C"></stop>
<stop offset="1" stop-color="#56CCF2"></stop>
</linearGradient>
</defs>
</svg>
