<svg width="320" height="250" viewBox="0 0 320 250" fill="none" xmlns="http://www.w3.org/2000/svg">
<path d="M81.7501 6.09157C85.5179 2.19817 90.7041 0 96.1221 0H226.844C232.142 0 234.84 6.36528 231.156 10.1725L206.25 35.9084C202.482 39.8018 197.296 42 191.878 42H115.677H61.156C55.8579 42 53.1599 35.6347 56.8444 31.8275L81.7501 6.09157Z" fill="url(#paint0_linear_3_20)"/>
<path d="M97.7501 64.0916C101.518 60.1982 106.704 58 112.122 58H242.844C248.142 58 250.84 64.3653 247.156 68.1725L222.25 93.9084C218.482 97.8018 213.296 100 207.878 100H131.677H77.156C71.8579 100 69.1599 93.6347 72.8444 89.8275L97.7501 64.0916Z" fill="url(#paint1_linear_3_20)"/>
<path d="M113.75 122.092C117.518 118.198 122.704 116 128.122 116H258.844C264.142 116 266.84 122.365 263.156 126.173L238.25 151.908C234.482 155.802 229.296 158 223.878 158H163.677H93.156C87.8579 158 85.1599 151.635 88.8444 147.827L113.75 122.092Z" fill="url(#paint2_linear_3_20)"/>
<path d="M77.2085 226.552C77.6565 226.832 77.8805 227.168 77.8805 227.56C77.8805 227.728 77.7965 227.98 77.6285 228.316L70.9085 241.42C70.6285 241.868 70.2925 242.092 69.9005 242.092C69.5645 242.092 69.3125 242.008 69.1445 241.84L68.7245 241.42C68.5005 241.196 68.2485 241.056 67.9685 241C67.6885 241 67.4085 241 67.1285 241H19.4165C18.5765 241 18.1565 240.58 18.1565 239.74V235.12C18.1565 234.56 18.3525 234 18.7445 233.44L56.5445 184.804H42.2645C39.7445 184.804 37.5885 185.196 35.7965 185.98C34.0605 186.708 32.5205 187.744 31.1765 189.088C29.8885 190.376 28.5725 191.832 27.2285 193.456L26.8925 193.876C26.5005 194.38 26.1645 194.632 25.8845 194.632C25.6605 194.632 25.4085 194.548 25.1285 194.38L21.6005 192.448C21.1525 192.168 20.9285 191.832 20.9285 191.44C20.9285 191.272 21.0125 191.02 21.1805 190.684L27.8165 177.58C28.0405 177.132 28.4045 176.908 28.9085 176.908C29.0765 176.908 29.2165 176.936 29.3285 176.992C29.4965 177.048 29.7485 177.244 30.0845 177.58C30.3085 177.804 30.5605 177.944 30.8405 178C31.1205 178 31.4005 178 31.6805 178H76.6205C76.9565 178 77.1245 178.14 77.1245 178.42V178.84C77.1245 179.008 77.0685 179.176 76.9565 179.344C76.8445 179.512 76.7325 179.68 76.6205 179.848L35.3765 233.356H46.7165C51.9245 233.356 56.1245 233.076 59.3165 232.516C62.5645 231.956 65.1405 231.116 67.0445 229.996C68.9485 228.82 70.4605 227.364 71.5805 225.628L71.9165 225.124C72.1965 224.62 72.5325 224.368 72.9245 224.368C73.2045 224.368 73.4565 224.452 73.6805 224.62L77.2085 226.552ZM123.848 225.46C123.848 227.476 124.156 229.296 124.772 230.92C125.388 232.488 126.732 233.412 128.804 233.692C129.476 233.748 129.812 234.112 129.812 234.784V237.556C129.812 238.34 129.392 238.732 128.552 238.732C125.808 238.732 123.512 238.9 121.664 239.236C119.872 239.516 118.304 239.908 116.96 240.412C115.672 240.86 114.384 241.364 113.096 241.924C112.872 242.036 112.676 242.092 112.508 242.092H112.256C112.144 242.092 112.088 241.98 112.088 241.756C112.088 241.532 112.144 241 112.256 240.16C112.368 239.264 112.48 238.284 112.592 237.22C112.76 236.1 112.9 235.148 113.012 234.364C112.732 235.092 112.116 236.072 111.164 237.304C110.268 238.536 108.924 239.656 107.132 240.664C105.396 241.616 103.1 242.092 100.244 242.092C98.3402 242.092 96.2962 241.7 94.1122 240.916C91.9842 240.132 89.9682 238.872 88.0642 237.136C86.1602 235.4 84.5922 233.132 83.3602 230.332C82.1842 227.476 81.5962 224.004 81.5962 219.916C81.5962 214.708 82.5202 210.508 84.3682 207.316C86.2722 204.068 88.7082 201.688 91.6762 200.176C94.7002 198.664 97.8922 197.908 101.252 197.908C103.996 197.908 106.516 198.328 108.812 199.168C111.108 200.008 113.124 201.212 114.86 202.78C116.316 202.164 117.548 201.604 118.556 201.1C119.62 200.54 120.516 199.98 121.244 199.42C121.524 199.196 121.804 198.972 122.084 198.748C122.42 198.524 122.784 198.3 123.176 198.076C123.344 197.964 123.484 197.908 123.596 197.908H123.68C123.792 197.908 123.848 197.964 123.848 198.076V225.46ZM112.088 212.272C111.92 211.152 111.5 209.92 110.828 208.576C110.212 207.176 109.26 206 107.972 205.048C106.684 204.04 104.948 203.536 102.764 203.536C100.076 203.536 97.9762 204.208 96.4642 205.552C94.9522 206.84 93.8882 208.52 93.2722 210.592C92.7122 212.664 92.4322 214.876 92.4322 217.228C92.4322 222.604 93.4962 226.86 95.6242 229.996C97.8082 233.132 100.608 234.7 104.024 234.7C106.04 234.7 107.608 234.28 108.728 233.44C109.904 232.544 110.744 231.648 111.248 230.752C111.752 229.856 112.032 229.324 112.088 229.156V212.272ZM177.177 199C178.017 199 178.437 199.42 178.437 200.26V202.78C178.437 203.62 178.017 204.04 177.177 204.04H175.917C175.021 204.04 174.209 204.376 173.481 205.048C172.809 205.72 171.997 207.12 171.045 209.248L156.849 240.076C156.569 240.692 156.149 241 155.589 241H150.801C150.185 241 149.737 240.692 149.457 240.076L135.345 209.332C134.393 207.204 133.609 205.804 132.993 205.132C132.433 204.404 131.593 204.04 130.473 204.04H130.305C129.465 204.04 129.045 203.62 129.045 202.78V200.26C129.045 199.42 129.465 199 130.305 199H149.709C150.549 199 150.969 199.42 150.969 200.26V202.78C150.969 203.62 150.549 204.04 149.709 204.04H149.541C148.477 204.04 147.721 204.264 147.273 204.712C146.881 205.104 146.685 205.692 146.685 206.476C146.685 207.204 146.825 208.016 147.105 208.912C147.441 209.808 147.889 210.844 148.449 212.02L156.177 228.4L163.233 212.02C163.793 210.732 164.269 209.556 164.661 208.492C165.053 207.428 165.249 206.532 165.249 205.804C165.249 204.628 164.633 204.04 163.401 204.04H161.721C160.881 204.04 160.461 203.62 160.461 202.78V200.26C160.461 199.42 160.881 199 161.721 199H177.177ZM221.219 225.46C221.219 227.476 221.527 229.296 222.143 230.92C222.759 232.488 224.103 233.412 226.175 233.692C226.847 233.748 227.183 234.112 227.183 234.784V237.556C227.183 238.34 226.763 238.732 225.923 238.732C223.179 238.732 220.883 238.9 219.035 239.236C217.243 239.516 215.675 239.908 214.331 240.412C213.043 240.86 211.755 241.364 210.467 241.924C210.243 242.036 210.047 242.092 209.879 242.092H209.627C209.515 242.092 209.459 241.98 209.459 241.756C209.459 241.532 209.515 241 209.627 240.16C209.739 239.264 209.851 238.284 209.963 237.22C210.131 236.1 210.271 235.148 210.383 234.364C210.103 235.092 209.487 236.072 208.535 237.304C207.639 238.536 206.295 239.656 204.503 240.664C202.767 241.616 200.471 242.092 197.615 242.092C195.711 242.092 193.667 241.7 191.483 240.916C189.355 240.132 187.339 238.872 185.435 237.136C183.531 235.4 181.963 233.132 180.731 230.332C179.555 227.476 178.967 224.004 178.967 219.916C178.967 214.708 179.891 210.508 181.739 207.316C183.643 204.068 186.079 201.688 189.047 200.176C192.071 198.664 195.263 197.908 198.623 197.908C201.367 197.908 203.887 198.328 206.183 199.168C208.479 200.008 210.495 201.212 212.231 202.78C213.687 202.164 214.919 201.604 215.927 201.1C216.991 200.54 217.887 199.98 218.615 199.42C218.895 199.196 219.175 198.972 219.455 198.748C219.791 198.524 220.155 198.3 220.547 198.076C220.715 197.964 220.855 197.908 220.967 197.908H221.051C221.163 197.908 221.219 197.964 221.219 198.076V225.46ZM209.459 212.272C209.291 211.152 208.871 209.92 208.199 208.576C207.583 207.176 206.631 206 205.343 205.048C204.055 204.04 202.319 203.536 200.135 203.536C197.447 203.536 195.347 204.208 193.835 205.552C192.323 206.84 191.259 208.52 190.643 210.592C190.083 212.664 189.803 214.876 189.803 217.228C189.803 222.604 190.867 226.86 192.995 229.996C195.179 233.132 197.979 234.7 201.395 234.7C203.411 234.7 204.979 234.28 206.099 233.44C207.275 232.544 208.115 231.648 208.619 230.752C209.123 229.856 209.403 229.324 209.459 229.156V212.272ZM248.843 207.82C250.355 204.572 252.455 202.108 255.143 200.428C257.831 198.748 260.659 197.908 263.627 197.908C266.259 197.908 268.499 198.636 270.347 200.092C272.195 201.548 273.119 203.704 273.119 206.56C273.119 207.792 273.007 208.884 272.783 209.836C272.559 210.788 271.943 211.488 270.935 211.936L263.039 215.128C262.703 215.24 262.451 215.296 262.283 215.296C261.779 215.296 261.527 215.044 261.527 214.54C261.527 214.372 261.583 214.12 261.695 213.784C262.031 213 262.227 212.244 262.283 211.516C262.395 210.788 262.451 210.144 262.451 209.584C262.451 208.072 262.059 206.98 261.275 206.308C260.547 205.58 259.623 205.216 258.503 205.216C257.215 205.216 256.011 205.608 254.891 206.392C253.771 207.176 252.791 208.128 251.951 209.248C251.111 210.368 250.495 211.46 250.103 212.524V227.98C250.103 230.22 250.607 232.124 251.615 233.692C252.623 235.204 254.163 235.96 256.235 235.96H256.403C257.243 235.96 257.663 236.38 257.663 237.22V239.74C257.663 240.58 257.243 241 256.403 241H231.959C231.119 241 230.699 240.58 230.699 239.74V237.22C230.699 236.38 231.119 235.96 231.959 235.96H232.127C234.199 235.96 235.739 235.204 236.747 233.692C237.755 232.124 238.259 230.22 238.259 227.98V217.396C238.259 215.884 238.147 214.428 237.923 213.028C237.755 211.628 237.335 210.452 236.663 209.5C235.991 208.492 234.871 207.904 233.303 207.736C232.631 207.68 232.295 207.316 232.295 206.644V203.788C232.295 203.228 232.715 202.864 233.555 202.696C237.531 202.08 241.003 201.1 243.971 199.756C246.995 198.412 249.039 197.348 250.103 196.564C250.271 196.452 250.411 196.396 250.523 196.396H250.691C250.803 196.396 250.859 196.452 250.859 196.564C250.859 196.62 250.775 197.04 250.607 197.824C250.495 198.608 250.327 199.616 250.103 200.848C249.935 202.024 249.711 203.256 249.431 204.544C249.207 205.776 249.011 206.868 248.843 207.82ZM300.61 235.96C301.45 235.96 301.87 236.38 301.87 237.22V239.74C301.87 240.58 301.394 241 300.442 241H276.67C275.718 241 275.242 240.58 275.242 239.74V237.22C275.242 236.38 275.662 235.96 276.502 235.96H276.67C278.742 235.96 280.254 235.204 281.206 233.692C282.214 232.124 282.718 230.22 282.718 227.98V219.076C282.718 217.788 282.606 216.5 282.382 215.212C282.214 213.924 281.794 212.804 281.122 211.852C280.45 210.9 279.33 210.34 277.762 210.172C277.09 210.116 276.754 209.752 276.754 209.08V206.224C276.754 205.888 276.866 205.664 277.09 205.552C277.314 205.384 277.622 205.244 278.014 205.132C282.438 203.676 285.826 202.192 288.178 200.68C290.586 199.112 292.35 197.74 293.47 196.564C293.582 196.452 293.694 196.396 293.806 196.396H294.058C294.17 196.396 294.226 196.452 294.226 196.564V227.896C294.226 230.136 294.73 232.04 295.738 233.608C296.746 235.176 298.286 235.96 300.358 235.96H300.61ZM288.598 178.84C290.054 178.84 291.482 179.54 292.882 180.94C294.282 182.34 294.982 183.74 294.982 185.14C294.982 186.54 294.282 187.94 292.882 189.34C291.482 190.74 290.054 191.44 288.598 191.44C287.254 191.44 285.854 190.74 284.398 189.34C282.998 187.996 282.298 186.596 282.298 185.14C282.298 183.74 282.998 182.34 284.398 180.94C285.798 179.54 287.198 178.84 288.598 178.84Z" fill="white"/>
<defs>
<linearGradient id="paint0_linear_3_20" x1="31" y1="21" x2="241" y2="21" gradientUnits="userSpaceOnUse">
<stop stop-color="#1B4987"/>
<stop offset="1" stop-color="#2F80ED"/>
</linearGradient>
<linearGradient id="paint1_linear_3_20" x1="47" y1="79" x2="257" y2="79" gradientUnits="userSpaceOnUse">
<stop stop-color="#1B4987"/>
<stop offset="1" stop-color="#2F80ED"/>
</linearGradient>
<linearGradient id="paint2_linear_3_20" x1="79" y1="137" x2="289" y2="137" gradientUnits="userSpaceOnUse">
<stop stop-color="#32768C"/>
<stop offset="1" stop-color="#56CCF2"/>
</linearGradient>
</defs>
</svg>
